<?xml version="1.0" standalone="no"?><!DOCTYPE svg PUBLIC "-//W3C//DTD SVG 1.1//EN" "http://www.w3.org/Graphics/SVG/1.1/DTD/svg11.dtd"><svg t="1508396016046" class="icon" style="" viewBox="0 0 1024 1024" version="1.1" xmlns="http://www.w3.org/2000/svg" p-id="1480" xmlns:xlink="http://www.w3.org/1999/xlink" width="200" height="200"><defs><style type="text/css"></style></defs><path d="M805.3169365 472.09387969l-250.2822876 0L555.0346489 221.8115921c0-22.94254303-18.77117157-41.7137146-41.71371461-41.71371459s-41.7137146 18.77117157-41.71371459 41.7137146l0 250.28228759-250.2822876 0c-22.94254303 0-41.7137146 18.77117157-41.7137146 41.7137146l0 0c0 22.94254303 18.77117157 41.7137146 41.7137146 41.71371461l250.2822876 0 0 250.28228758c0 22.94254303 18.77117157 41.7137146 41.71371459 41.71371461s41.7137146-18.77117157 41.71371461-41.7137146l0-250.2822876 250.2822876 1e-8c22.94254303 0 41.7137146-18.77117157 41.71371459-41.71371461l0 0C847.03065109 490.86505127 828.25947952 472.09387969 805.3169365 472.09387969z" p-id="1481" fill="#ffffff"></path></svg>