<?xml version="1.0" standalone="no"?><!DOCTYPE svg PUBLIC "-//W3C//DTD SVG 1.1//EN" "http://www.w3.org/Graphics/SVG/1.1/DTD/svg11.dtd"><svg t="1508485217862" class="icon" style="" viewBox="0 0 1024 1024" version="1.1" xmlns="http://www.w3.org/2000/svg" p-id="1630" xmlns:xlink="http://www.w3.org/1999/xlink" width="48" height="48"><defs><style type="text/css"></style></defs><path d="M418.72406866 377.48560644c0 2.23212548 0 3.81291588 0 5.39305512 0 16.58038873 0.15110974 33.16403382-0.10812176 49.73986268-0.06513376 4.14509734-0.70669853 8.60739421-2.38844622 12.33498587-3.57192203 7.91828156-11.84908945 11.28959256-20.39721273 8.26153562-6.57848563-2.33047756-13.34390389-4.94167997-19.0222444-8.87509308-46.05786483-31.910865-91.7907139-64.28287483-135.07975264-99.94217371-12.34280147-10.16669062-13.96527757-22.82408768-2.834611-34.2068213 11.0381773-11.28829028 23.05010084-21.73635752 35.36945427-31.63925803C308.56374832 250.98263486 343.22455064 223.86299187 377.80914597 196.64890553c2.97269347-2.33894494 6.31730008-4.29034492 9.69707844-6.01442883 13.36214153-6.81426843 26.8675766-0.19214367 30.22195285 14.83350728 0.6962771 3.11794167 0.93531751 6.39285462 0.95225226 9.59742406 0.0924893 16.43318647 0.04298799 32.86767589 0.042988 49.30151414 0 1.57492823 0 3.14920532 0 5.34290269 2.20021003 0 3.90605693 0 5.61190382 0 29.34655807 0 58.69832716 0.36800438 88.03706899-0.10421363 29.14594703-0.46896105 57.65097978 3.82138324 85.59325928 11.27591478 67.25100904 17.94102755 122.89913348 53.87453859 164.65948895 109.9577546 29.20196163 39.21884543 47.66601141 83.17550346 52.16087547 132.08426225 10.01297568 108.94753367-32.25542133 194.38838093-119.34088921 258.4152806-40.67457935 29.90344978-86.89462713 47.1130278-137.03636365 53.23557901-13.49761882 1.64852937-27.15090727 2.6209727-40.74557528 2.76426684-35.65148266 0.37777465-71.30947862 0.20321687-106.96552055 0.09704918-21.42827651-0.06252793-39.82328439-7.59065998-54.62813323-23.26960067-19.8338077-21.00555979-18.57347444-47.52402017 3.25667594-66.55473194 14.37171069-12.52843246 31.14098677-18.98707199 50.31043214-18.86331841 36.09504221 0.23187532 72.19008382 0.45984253 108.28447427 0.72363326 41.38323257 0.30156833 78.75619395-12.00931835 112.46409222-35.77393394 30.92213807-21.79953723 53.20887398-50.45242339 65.0670826-86.32535994 15.87043324-48.01317292 11.55208101-94.63183758-13.79397677-138.65362872-24.90054416-43.24735368-62.21162874-71.049596-109.76105166-85.15947002-10.47607519-3.10817138-21.48233706-4.52026618-32.31143594-6.30687864-3.54196066-0.58424788-7.29560558 0.21363767-10.95220133 0.21624349-34.6282351 0.02475096-69.25712135 0.01498069-103.88535645 0.01498068C422.89000821 377.48560644 421.03044638 377.48560644 418.72406866 377.48560644z" p-id="1631" fill="#ffffff"></path></svg>