<?xml version="1.0" standalone="no"?><!DOCTYPE svg PUBLIC "-//W3C//DTD SVG 1.1//EN" "http://www.w3.org/Graphics/SVG/1.1/DTD/svg11.dtd"><svg t="1508380520805" class="icon" style="" viewBox="0 0 1024 1024" version="1.1" xmlns="http://www.w3.org/2000/svg" p-id="2004" xmlns:xlink="http://www.w3.org/1999/xlink" width="200" height="200"><defs><style type="text/css"></style></defs><path d="M821.81445313 353.796875H670.203125V202.18554687c0-32.79418945-26.53198242-59.32617188-59.32617188-59.32617187H202.18554687c-32.79418945 0-59.32617188 26.53198242-59.32617187 59.32617188v408.69140624c0 32.79418945 26.53198242 59.32617188 59.32617188 59.32617188h151.61132812v151.61132813c0 32.79418945 26.53198242 59.32617188 59.32617188 59.32617187h408.69140624c32.79418945 0 59.32617188-26.53198242 59.32617188-59.32617188V413.12304687c0-32.79418945-26.53198242-59.32617188-59.32617187-59.32617187z m-468.01757813 59.32617188v197.75390624H202.18554687V202.18554687h408.69140626v151.61132813H413.12304687c-32.79418945 0-59.32617188 26.53198242-59.32617187 59.32617188z m257.08007813 0v197.75390624H413.12304687V413.12304687h197.75390626z m210.93749999 408.69140624H413.12304687V670.203125h197.75390626c32.79418945 0 59.32617188-26.53198242 59.32617187-59.32617188V413.12304687h151.61132813v408.69140626z" p-id="2005"></path></svg>