<?xml version="1.0" standalone="no"?><!DOCTYPE svg PUBLIC "-//W3C//DTD SVG 1.1//EN" "http://www.w3.org/Graphics/SVG/1.1/DTD/svg11.dtd"><svg t="1508382969712" class="icon" style="" viewBox="0 0 1024 1024" version="1.1" xmlns="http://www.w3.org/2000/svg" p-id="3251" xmlns:xlink="http://www.w3.org/1999/xlink" width="200" height="200"><defs><style type="text/css"></style></defs><path d="M865.13197534 540.25055836q0 11.46972656-8.36216529 19.88839309t-19.88839308 8.36216528l-98.87695313 0q0 75.48549097-29.55008348 128.0315288l91.81431373 92.26632276q8.36216528 8.36216528 8.36216529 19.88839309t-8.3621653 19.88839307q-7.96665748 8.36216528-19.88839308 8.36216529t-19.88839307-8.36216529l-87.40722656-86.95521752q-2.2035432 2.2035432-6.61063036 5.76311351t-18.53236596 12.59974877-28.70256663 16.10281786-36.21721508 12.82575368-42.8278462 5.7631135l0-395.50781249-56.50111596-1e-8 0 395.50781251q-22.48744408 0-44.80538526-5.93261719t-38.42075904-14.57728784-29.15457568-17.23284007-19.21037912-14.35128369l-6.61063036-6.15862133-80.79659622 91.36230469q-8.81417433 9.26618336-21.18791819 9.26618336-10.56570848 0-18.984375-7.06263939-8.36216528-7.96665748-9.04017846-19.66238817t6.83663526-20.50990503l89.1587615-100.17647901q-25.59500536-50.34249464-25.59500536-120.9688894l-98.87695313 0q-11.46972656 0-19.88839307-8.36216529t-8.36216529-19.88839307 8.36216529-19.88839308 19.88839308-8.36216531l98.87695312 0 0-129.78306371-76.38950904-76.38950904q-8.36216528-8.36216528-8.36216529-19.88839308t8.3621653-19.88839308 19.88839307-8.36216528 19.88839308 8.36216528l76.38950904 76.38950905 372.56835937 0 76.38950904-76.38950905q8.36216528-8.36216528 19.88839308-8.36216528t19.88839307 8.36216528 8.36216529 19.88839308-8.36216529 19.88839308l-76.38950903 76.38950904 0 129.78306372 98.87695312 0q11.46972656 0 19.88839307 8.36216529t8.3621653 19.88839309zM653.25279028 285.99553538l-282.50558057 0q0-58.70465993 41.24581495-100.00697533t100.00697534-41.24581496 100.00697533 41.24581496 41.24581495 100.00697533z" p-id="3252" fill="#ffffff"></path></svg>