<?xml version="1.0" standalone="no"?><!DOCTYPE svg PUBLIC "-//W3C//DTD SVG 1.1//EN" "http://www.w3.org/Graphics/SVG/1.1/DTD/svg11.dtd"><svg t="1508396026052" class="icon" style="" viewBox="0 0 1024 1024" version="1.1" xmlns="http://www.w3.org/2000/svg" p-id="1645" xmlns:xlink="http://www.w3.org/1999/xlink" width="200" height="200"><defs><style type="text/css"></style></defs><path d="M370.78169536 548.20982172c0 77.99324021 63.22506442 141.21830464 141.21830464 141.21830462s141.21830464-63.22506442 141.21830464-141.21830463-63.22506442-141.21830464-141.21830464-141.21830463-141.21830464 63.22506442-141.21830464 141.21830463zM816.16250229 309.22499847l-152.08125115 0c-10.86294651-43.45178603-21.72589302-86.90357209-65.17767905-86.90357207l-173.80714418 0c-43.45178603 0-54.31473255 43.45178603-65.17767905 86.90357207l-152.08125115 0c-23.89848232 0-43.45178603 19.55330372-43.45178604 43.45178606l0 391.06607436c0 23.89848232 19.55330372 43.45178603 43.45178604 43.45178605l608.32500458 0c23.89848232 0 43.45178603-19.55330372 43.45178604-43.45178605l0-391.06607436c0-23.89848232-19.55330372-43.45178603-43.45178604-43.45178606zM512 741.02712226c-106.49082251 0-192.81730056-86.32512018-192.81730056-192.81730054 0-106.49082251 86.32647805-192.81730056 192.81730056-192.81730057 106.49218038 0 192.81730056 86.32647805 192.81730056 192.81730057 0 106.49218038-86.32376231 192.81730056-192.81730056 192.81730054zM816.16250229 439.58035661l-86.90357209 0 0-43.45178605 86.90357209 0 0 43.45178605z" p-id="1646" fill="#ffffff"></path></svg>