<?xml version="1.0" standalone="no"?><!DOCTYPE svg PUBLIC "-//W3C//DTD SVG 1.1//EN" "http://www.w3.org/Graphics/SVG/1.1/DTD/svg11.dtd"><svg t="1508588224618" class="icon" style="" viewBox="0 0 1040 1024" version="1.1" xmlns="http://www.w3.org/2000/svg" p-id="1900" xmlns:xlink="http://www.w3.org/1999/xlink" width="48.75" height="48"><defs><style type="text/css"></style></defs><path d="M763.02840162 288.71674037L683.71001838 288.71674037c-11.80532002-42.99715408-51.97411587-74.8302496-100.1569405-74.83024959L440.39898327 213.88649079c-48.20158292 0-88.33286223 31.83309551-100.15694053 74.83024957l-79.29962427 0c-53.33167255 0-96.55531771 43.22364516-96.5553177 96.55531772l-1e-8 328.28682866c0 53.33167255 43.22364516 96.55531771 96.55531771 96.5553177l502.08528859 0c53.31221906 0 96.55531771-43.22364516 96.55531771-96.5553177l0-328.28682866C859.58302408 331.94038552 816.34062067 288.71674037 763.02840162 288.71674037zM820.9607581 713.55819152c0 31.94564583-25.98671066 57.9330517-57.93305172 57.93305171L260.94241848 771.49124323c-31.94634105 0-57.9330517-25.98671066-57.93305171-57.93305171l0-328.28682866c0-31.94564583 25.98671066-57.9330517 57.9330517-57.93305173l79.29962427 0 29.43826594 0 7.80699055-28.38223478c7.5054657-27.34426667 33.37962536-46.44801481 62.91168404-46.44801481l143.15409461 0c29.53275322 0 55.40621833 19.10374814 62.93044229 46.44801481l7.80699055 28.38223478 29.41950767 0 79.31838323 0c31.94564583 0 57.9330517 25.98671066 57.9330517 57.93305173L820.96145332 713.55819152z" p-id="1901" fill="#ffffff"></path><path d="M511.98541038 378.65240795c-94.4800767 0-171.34735485 76.84782533-171.34735486 171.32790203 0 94.48077127 76.86727814 171.32929113 171.34735486 171.32929114 94.46201299 0 171.30914376-76.84782533 171.30914378-171.32929114C683.29455347 455.50023328 606.44742337 378.65240795 511.98541038 378.65240795zM511.98541038 682.6873358c-73.30247734 0-132.72508954-59.40385326-132.72508953-132.70702582 0-73.30247734 59.42261153-132.70633058 132.72508953-132.70633057 73.28371906 0 132.68757231 59.40385326 132.68757233 132.70633057C644.67298271 623.28348254 585.26912945 682.6873358 511.98541038 682.6873358z" p-id="1902" fill="#ffffff"></path><path d="M752.84464589 362.07618841l-39.41359498 1e-8c-10.67355987 0-19.31078572 8.63722585-19.31078571 19.31078573 0 10.67425442 8.63722585 19.31078572 19.31078571 19.31078571l39.41359498 0c10.67355987 0 19.31148027-8.63722585 19.31148028-19.31078571C772.15543162 370.71271904 763.51820576 362.07618841 752.84464589 362.07618841z" p-id="1903" fill="#ffffff"></path></svg>