<?xml version="1.0" standalone="no"?><!DOCTYPE svg PUBLIC "-//W3C//DTD SVG 1.1//EN" "http://www.w3.org/Graphics/SVG/1.1/DTD/svg11.dtd"><svg t="1508395584815" class="icon" style="" viewBox="0 0 1229 1024" version="1.1" xmlns="http://www.w3.org/2000/svg" p-id="1451" xmlns:xlink="http://www.w3.org/1999/xlink" width="240.0390625" height="200"><defs><style type="text/css"></style></defs><path d="M851.29752604 264.80761742c0-12.35961937 0-27.19116234-1e-8-46.96655249 0-42.02270531-37.07885742-76.62963844-81.57348632-76.62963842L512.64396135 141.21142578C468.14933244 141.21142578 431.07047502 175.81835961 431.07047502 217.84106422c0 17.30346656 0 34.60693383 0 46.96655248L245.67618791 264.80761742C211.06925479 264.80761742 183.87809244 291.99877906 183.87809244 326.60571289l0 494.38476586C183.87809244 855.59741187 211.06925479 882.78857422 245.67618791 882.78857422l766.29638647 0c34.60693383 0 61.79809547-27.19116234 61.79809545-61.79809547l0-494.38476586C1073.77067057 291.99877906 1046.57950822 264.80761742 1011.9725751 264.80761742L851.29752604 264.80761742 851.29752604 264.80761742zM604.10514346 413.12304711c96.4050293 0 173.03466773 76.62963844 173.03466773 173.03466773s-76.62963844 173.03466773-173.03466773 173.03466774-173.03466773-76.62963844-173.03466773-173.03466774S507.70011416 413.12304711 604.10514346 413.12304711L604.10514346 413.12304711zM900.73600283 338.96533227l49.43847681 0 0 49.4384768-49.43847681 0L900.73600283 338.96533227 900.73600283 338.96533227z" p-id="1452" fill="#ffffff"></path></svg>