<?xml version="1.0" standalone="no"?><!DOCTYPE svg PUBLIC "-//W3C//DTD SVG 1.1//EN" "http://www.w3.org/Graphics/SVG/1.1/DTD/svg11.dtd"><svg t="1508381583281" class="icon" style="" viewBox="0 0 1242 1024" version="1.1" xmlns="http://www.w3.org/2000/svg" p-id="1422" xmlns:xlink="http://www.w3.org/1999/xlink" width="242.578125" height="200"><defs><style type="text/css"></style></defs><path d="M941.31334349 794.79907901L680.92469621 794.79907901C673.50584689 794.79907901 668.04699974 796.11114624 661.47046546 799.51280189L526.1817574 869.24674472C508.84951126 878.17204137 490.69114892 882.65898723 472.3708034 882.65898723 458.45641105 882.65898723 444.39623431 880.06724968 430.53043771 874.85137768 403.70595267 864.77599696 382.56709183 846.74722161 368.55550941 822.23910204L367.71319509 822.61166417C367.71319509 822.61166417 367.71319509 822.61166417 367.66460007 822.61166417L367.66460007 822.57926797C360.24575074 804.92305475 345.48904407 794.79907901 327.16869853 794.79907901L282.9147773 794.79907901C250.14549337 794.79907901 220.64827883 782.21295269 197.51701964 758.43375928 174.6449344 734.89754174 162.57715604 704.89817737 162.57715604 671.69153818L162.57715604 264.39995857C162.57715604 196.51262902 216.58249015 141.29241774 282.9147773 141.29241774L941.31334349 141.29241774C1007.64563063 141.29241774 1061.61856782 196.51262902 1061.61856782 264.39995857L1061.61856782 671.69153818C1061.61856782 739.57886771 1007.64563063 794.79907901 941.31334349 794.79907901ZM985.56726471 264.39995857C985.56726471 238.69315992 965.724273 217.79727494 941.31334349 217.79727494L282.9147773 217.79727494C258.45525277 217.79727494 238.61226034 238.69315992 238.61226034 264.39995857L238.61226034 671.69153818C238.61226034 685.23336767 242.72664405 695.5031285 251.87871777 704.93057429 260.83641136 714.17983807 270.44203918 718.27802368 282.9147773 718.27802368L327.16869853 718.27802368C370.74228862 718.27802368 409.14860173 740.97192689 430.62762777 778.47113185L431.58333097 778.08237088 431.68052103 778.32534674C436.88019494 790.7008941 444.99557349 798.62189253 457.17674073 803.17363153 469.34170987 807.79016436 480.00023094 807.15842825 491.53346397 801.16503506L626.77357702 731.46348916C644.10582241 722.47339863 661.32467965 718.27802368 680.92469621 718.27802368L941.31334349 718.27802368C965.724273 718.27802368 985.56726471 697.38213799 985.56726471 671.69153818L985.56726471 264.39995857ZM808.5191829 523.71951374C777.43452905 523.71951374 752.24607835 498.36907986 752.24607835 467.09004517 752.24607835 435.81101049 777.43452905 410.46057658 808.5191829 410.46057658 839.60383745 410.46057658 864.80848627 435.81101049 864.80848627 467.09004517 864.80848627 498.36907986 839.60383745 523.71951374 808.5191829 523.71951374ZM612.0978623 523.71951374C581.01320772 523.71951374 555.80855893 498.36907986 555.80855893 467.09004517 555.80855893 435.81101049 581.01320772 410.46057658 612.0978623 410.46057658 643.18251615 410.46057658 668.38716494 435.81101049 668.38716494 467.09004517 668.38716494 498.36907986 643.18251615 523.71951374 612.0978623 523.71951374ZM415.78992914 523.71951374C384.70527529 523.71951374 359.50062647 498.36907986 359.50062647 467.09004517 359.50062647 435.81101049 384.70527529 410.46057658 415.78992914 410.46057658 446.8745837 410.46057658 472.06303441 435.81101049 472.06303441 467.09004517 472.06303441 498.36907986 446.8745837 523.71951374 415.78992914 523.71951374Z" p-id="1423" fill="#ffffff"></path></svg>