<?xml version="1.0" standalone="no"?><!DOCTYPE svg PUBLIC "-//W3C//DTD SVG 1.1//EN" "http://www.w3.org/Graphics/SVG/1.1/DTD/svg11.dtd"><svg t="1508505422824" class="icon" style="" viewBox="0 0 1024 1024" version="1.1" xmlns="http://www.w3.org/2000/svg" p-id="1830" xmlns:xlink="http://www.w3.org/1999/xlink" width="48" height="48"><defs><style type="text/css"></style></defs><path d="M686.22119141 824.10510254l-318.92761231-1.63146973-201.31347656-307.01293945L360.71826172 199.94433594h325.30517578l201.461792 305.62866211-201.26403809 318.53210449z m-292.13195802-50.97106934l265.03967286 1.43371582 169.57397461-268.50036621-169.3762207-256.68457031H388.30493164L224.61413574 514.71911622l169.47509766 258.41491698z" fill="#ffffff" p-id="1831"></path><path d="M525.39782715 662.3918457a151.57836914 151.57836914 0 0 1-151.38061524-151.43005371c0-83.45214844 67.9284668-151.38061523 151.38061524-151.38061523s151.38061523 67.9284668 151.38061523 151.38061523a151.57836914 151.57836914 0 0 1-151.38061523 151.43005371z m-1e-8-253.37219238c-56.21154786 0-101.94213867 45.73059083-101.94213866 101.94213868s45.73059083 101.99157715 101.94213867 101.99157714c56.26098633 0 101.94213867-45.7800293 101.94213867-101.99157714s-45.73059083-101.94213867-101.94213867-101.94213868z" fill="#ffffff" p-id="1832"></path></svg>