<?xml version="1.0" standalone="no"?><!DOCTYPE svg PUBLIC "-//W3C//DTD SVG 1.1//EN" "http://www.w3.org/Graphics/SVG/1.1/DTD/svg11.dtd"><svg t="1508382459686" class="icon" style="" viewBox="0 0 1024 1024" version="1.1" xmlns="http://www.w3.org/2000/svg" p-id="2581" xmlns:xlink="http://www.w3.org/1999/xlink" width="200" height="200"><defs><style type="text/css"></style></defs><path d="M576.4009139 340.23526019L447.5990861 340.23526019c-59.2731754 0-107.3638266 48.09065051-107.36382659 107.3638266l1e-8 128.85976801c0 59.2731754 48.09065051 107.3638266 107.36382659 107.36382661l128.85976803 0c59.2731754 0 107.3638266-48.09065051 107.3638266-107.36382661L683.82268074 447.5990861C683.76473981 388.26797046 635.73202954 340.23526019 576.4009139 340.23526019zM640.8307979 168.44154958L383.1692021 168.44154958c-118.60429172 0-214.72765252 96.12336079-214.72765253 214.72765252l0 257.66159512c0 118.60429172 96.12336079 214.72765252 214.72765253 214.72765252l257.66159512 0c118.60429172 0 214.72765252-96.12336079 214.72765252-214.72765252L855.55845042 383.1692021C855.55845042 264.56491037 759.43508963 168.44154958 640.8307979 168.44154958zM812.62450783 640.8307979c0 94.84866938-76.88710099 171.79371061-171.79371061 171.7937106L383.1692021 812.62450783c-94.84866938 0-171.79371061-76.88710099-171.7937106-171.79371061L211.37549217 383.1692021c0-94.84866938 76.88710099-171.79371061 171.79371061-171.7937106l257.66159512 0c94.84866938 0 171.79371061 76.88710099 171.7937106 171.7937106L812.62450783 640.8307979z" p-id="2582" fill="#ffffff"></path></svg>