<?xml version="1.0" standalone="no"?><!DOCTYPE svg PUBLIC "-//W3C//DTD SVG 1.1//EN" "http://www.w3.org/Graphics/SVG/1.1/DTD/svg11.dtd"><svg t="1508381687549" class="icon" style="" viewBox="0 0 1024 1024" version="1.1" xmlns="http://www.w3.org/2000/svg" p-id="1587" xmlns:xlink="http://www.w3.org/1999/xlink" width="200" height="200"><defs><style type="text/css"></style></defs><path d="M846.86328125 305.34716797c-4.28466796 20.51696778-11.618042 54.05273438-20.76416016 89.48364258-25.9552002 100.1953125-43.58825683 128.70483398-50.01525879 136.36779785l-0.65917968 0.8239746-0.57678223 0.82397461c-2.14233398 2.96630859-5.19104004 7.00378418-6.17980957 8.23974611-17.71545411 21.09375-43.6706543 33.1237793-71.19140625 33.12377928-21.75292969 0-42.92907715-7.74536133-59.65576171-21.67053222-19.03381348-15.90270997-30.65185547-38.31481934-32.79418946-62.95166016-2.14233398-24.63684083 5.43823242-48.69689942 21.34094239-67.64831543 0.98876953-1.15356445 4.44946289-4.8614502 7.00378418-7.49816894l0.74157714-0.74157715 0.65917969-0.82397461c6.26220703-7.49816895 31.14624023-29.41589356 126.39770507-71.76818847 33.70056153-15.16113281 65.91796875-28.09753418 85.69335938-35.76049805m17.05627442-37.24365234c-2.55432129 0-5.19104004 0.57678222-7.74536134 1.89514159 0 0-203.85131836 75.64086914-244.22607422 123.76098633 0 0-6.01501465 6.26220703-8.40454101 9.0637207-43.50585938 51.74560546-36.74926758 128.95202637 15.07873534 172.45788575 22.98889161 19.1986084 50.92163086 28.67431641 78.6895752 28.67431641 34.93652344 0 69.70825195-14.83154297 93.93310547-43.75305177 2.38952637-2.80151366 7.49816895-9.88769531 7.49816895-9.88769531 41.03393555-48.77929687 81.4086914-259.96398926 81.40869141-259.96398925 3.62548828-11.70043944-5.43823242-22.24731445-16.23229981-22.24731445zM306.00634767 174.5c20.59936522 4.28466796 54.13513184 11.618042 89.56604003 20.76416016 100.36010742 25.87280273 128.8696289 43.58825683 136.53259277 49.93286133l0.82397462 0.65917968 0.8239746 0.57678222c2.96630859 2.14233398 7.00378418 5.19104004 8.23974609 6.17980959 19.03381348 15.90270997 30.65185547 38.31481934 32.79418945 62.95166015 2.14233398 24.63684083-5.43823242 48.69689942-21.34094238 67.64831542-17.71545411 21.09375-43.6706543 33.1237793-71.19140624 33.1237793-21.75292969 0-42.92907715-7.74536133-59.65576172-21.67053223-1.15356445-0.98876953-4.8614502-4.44946289-7.49816895-7.00378418l-0.74157715-0.74157714-0.82397461-0.65917969c-7.49816895-6.26220703-29.41589356-31.06384278-71.85058593-126.23291015-15.07873536-33.61816406-28.01513671-65.75317383-35.67810058-85.52856446M285.6541748 140.38745117c-12.03002931 0-21.01135254 12.93640137-15.07873535 24.71923829 0 0 75.72326661 203.60412598 123.8433838 243.97888183 0 0 6.26220703 6.01501465 9.06372069 8.40454102 22.98889161 19.1986084 50.92163086 28.67431641 78.68957519 28.67431641 34.93652344 0 69.70825195-14.83154297 93.93310548-43.75305176 43.50585938-51.74560546 36.74926758-128.95202637-15.07873536-172.45788575-2.80151366-2.38952637-9.88769531-7.49816895-9.88769531-7.49816894C502.27709961 181.58618164 290.9276123 141.21142578 290.9276123 141.21142578c-1.81274414-0.57678222-3.54309082-0.82397461-5.2734375-0.82397461zM326.44091796 444.51647949c21.75292969 0 42.92907715 7.74536133 59.65576174 21.67053224 19.03381348 15.90270997 30.65185547 38.31481934 32.79418944 62.95166015 2.14233398 24.63684083-5.43823242 48.69689942-21.34094239 67.64831543-0.98876953 1.15356445-4.44946289 4.8614502-7.00378416 7.49816894l-0.74157716 0.74157714-0.65917969 0.82397461c-6.26220703 7.49816895-31.14624023 29.41589356-126.39770507 71.76818848-33.78295898 15.07873536-66.08276367 28.01513671-85.77575683 35.67810059 4.28466796-20.51696778 11.618042-54.05273438 20.76416015-89.48364258 25.9552002-100.1953125 43.58825683-128.70483398 50.01525878-136.36779785l0.65917969-0.82397462 0.57678223-0.8239746c2.14233398-2.96630859 5.19104004-7.00378418 6.17980956-8.23974609 17.79785156-21.01135254 43.75305176-33.04138184 71.27380371-33.04138184m0-29.66308594c-34.93652344 0-69.70825195 14.83154297-93.93310546 43.75305176-2.38952637 2.80151366-7.49816895 9.88769531-7.49816895 9.88769531C184.05810546 517.19104004 143.68334961 728.37573241 143.68334961 728.37573241c-3.62548828 11.618042 5.52062989 22.164917 16.23229981 22.164917 2.55432129 0 5.19104004-0.57678222 7.74536132-1.8951416 0 0 203.85131836-75.64086914 244.22607423-123.76098632 0 0 6.01501465-6.26220703 8.404541-9.06372071 43.50585938-51.74560546 36.74926758-128.95202637-15.07873534-172.45788575-22.98889161-19.11621093-50.92163086-28.50952148-78.77197267-28.50952147zM541.58068848 602.63720704c21.75292969 0 42.92907715 7.74536133 59.65576171 21.67053222 1.15356445 0.98876953 4.8614502 4.44946289 7.49816895 7.00378418l0.74157714 0.74157715 0.82397461 0.65917968c7.49816895 6.26220703 29.41589356 31.06384278 71.85058594 126.23291016 15.07873536 33.78295898 28.01513671 65.91796875 35.67810059 85.61096191-20.59936522-4.28466796-54.13513184-11.618042-89.56604004-20.76416015-100.36010742-25.87280273-128.8696289-43.58825683-136.53259277-49.93286133l-0.82397461-0.65917968-0.82397461-0.57678223c-2.96630859-2.14233398-7.00378418-5.19104004-8.23974609-6.17980958-19.03381348-15.90270997-30.65185547-38.31481934-32.79418946-62.95166014-2.14233398-24.63684083 5.43823242-48.69689942 21.34094239-67.64831544 17.71545411-21.17614747 43.6706543-33.20617675 71.19140624-33.20617675m0-29.66308594c-34.93652344 0-69.70825195 14.83154297-93.93310546 43.75305176-43.50585938 51.74560546-36.74926758 128.95202637 15.07873535 172.45788572 2.80151366 2.38952637 9.88769531 7.49816895 9.88769531 7.49816896C521.55810547 837.4699707 732.90759278 877.84472656 732.90759278 877.84472656c1.81274414 0.57678222 3.54309082 0.82397461 5.19104003 0.82397461 12.03002931 0 21.01135254-12.93640137 15.07873536-24.71923828 0 0-75.72326661-203.60412598-123.84338379-243.97888184 0 0-6.26220703-6.01501465-9.06372071-8.40454102-22.90649414-19.1986084-50.8392334-28.59191895-78.6895752-28.59191893z" fill="#ffffff" p-id="1588"></path></svg>