<?xml version="1.0" standalone="no"?><!DOCTYPE svg PUBLIC "-//W3C//DTD SVG 1.1//EN" "http://www.w3.org/Graphics/SVG/1.1/DTD/svg11.dtd"><svg t="1508588275605" class="icon" style="" viewBox="0 0 1024 1024" version="1.1" xmlns="http://www.w3.org/2000/svg" p-id="1898" xmlns:xlink="http://www.w3.org/1999/xlink" width="48" height="48"><defs><style type="text/css"></style></defs><path d="M512.0081472 838.7927356c-87.28105947 0-169.34790463-33.99015963-231.04672505-95.66453844C219.23816007 681.37234626 185.26429486 599.3136483 185.28058929 512c0-87.3055011 33.99830684-169.38049346 95.72971611-231.10375552C342.71727305 219.18927682 424.775971 185.19911718 512.06517767 185.19911718c87.32179552 0 169.37234626 33.99015963 231.11190276 95.68898008 127.40606814 127.45495141 127.38977374 334.77700128 0 462.17492222C681.42122952 804.77813435 599.32994274 838.7927356 512.0081472 838.7927356L512.0081472 838.7927356zM512.06517767 227.79273045c-75.9238489 0-147.27711306 29.54993024-200.95093175 83.21560174C257.43228 364.66585648 227.86605534 436.05985668 227.86605534 512 227.85790813 587.94829052 257.39969116 659.33414352 311.06536265 713.00796222c53.66567151 53.64122987 125.04337728 83.22374895 200.94278456 83.22374896 75.94829052 0 147.35043794-29.59881351 201.04869827-83.28892663 110.8020544-110.78575999 110.8020544-291.10795631 0-401.93445236C659.36673236 257.34266068 587.99717379 227.79273045 512.06517767 227.79273045L512.06517767 227.79273045z" p-id="1899" fill="#ffffff"></path><path d="M395.94299521 601.18750659c0 0 38.28373925 61.20184064 116.05700479 61.20184064s128.7747994-61.20184064 128.7747994-61.20184064 28.90630066-0.09776651 28.89815347 30.60092031c0 0-50.1297824 71.40214741-157.67295287 71.40214742-107.55131767 0-142.55173133-71.40214741-142.55173133-71.40214742S368.38913139 601.18750659 395.94299521 601.18750659z" p-id="1900" fill="#ffffff"></path><path d="M417.04426881 406.91728693c-22.03820274 0-40.01909495 17.92386174-40.01909493 40.02724215 0 22.07079158 17.98089221 40.00280052 40.01909494 40.00280054 22.13596925 0 40.01909495-17.93200895 40.01909494-40.00280054C457.06336376 424.84114868 439.18023807 406.91728693 417.04426881 406.91728693L417.04426881 406.91728693z" p-id="1901" fill="#ffffff"></path><path d="M622.09324715 406.91728693c-22.07079158 0-39.9946533 17.92386174-39.99465332 40.02724215 0 22.07079158 17.92386174 40.00280052 39.99465332 40.00280054 22.11152762 0 40.02724216-17.93200895 40.02724215-40.00280054C662.12048931 424.84114868 644.20477477 406.91728693 622.09324715 406.91728693L622.09324715 406.91728693z" p-id="1902" fill="#ffffff"></path></svg>