<?xml version="1.0" standalone="no"?><!DOCTYPE svg PUBLIC "-//W3C//DTD SVG 1.1//EN" "http://www.w3.org/Graphics/SVG/1.1/DTD/svg11.dtd"><svg t="1508380593520" class="icon" style="" viewBox="0 0 1024 1024" version="1.1" xmlns="http://www.w3.org/2000/svg" p-id="2979" xmlns:xlink="http://www.w3.org/1999/xlink" width="200" height="200"><defs><style type="text/css"></style></defs><path d="M465.06148649 797.25215737c25.08074703 3.77878592 16.87357639 72.50281171-20.4619987 55.52780118-111.13688843-27.90979981-192.96751475-121.46932258-192.96751475-232.86257656 0-3.50713624 0.27234493-6.98717619 0.47313021-10.46096385l-0.4731302 0c0 0-13.41507291-113.8388006 104.72774999-209.99810622 62.94433737-51.23489439 93.0419285-178.06704999 83.75649433-202.86155702-9.75578548-26.20903309 25.10089508-34.26057843 41.90013227-21.00251992C605.11626772 272.7352332 773.22049463 407.62449191 771.80388426 588.453203c0 0 1.77163183 19.34413361 0 41.9584914l0 0c-7.12056979 91.50790393-60.23061446 183.01580786-189.54583391 222.36131662-59.87698278 19.22324598-53.96459671-48.1126541-40.13822685-55.52085365M549.47244211 797.31190696c49.82731521-0.27373471 165.68994453-71.64131214 165.76219942-180.8822077 0.00138977-21.97101201 0.00138977-39.43374304 0.00138979-39.43374304l0 0c-1.30197574-71.51278245-41.80286612-183.76058777-238.15662879-338.02732932 0.03751722 0.10212936-1.22902629 135.38392606-97.5425681 208.77880633-25.11826358 25.67476485-72.3916505 63.99133736-72.39165048 140.14371005-0.46826632 5.1182789-0.79410788 25.38366097-0.79410787 30.57627908 0 53.74018995 52.76891898 147.38864156 155.97028647 178.8437887" fill="#333333" p-id="2980"></path><path d="M411.40466762 522.51168159c-13.91182459 0-25.18218116 11.22658703-25.18218116 25.09950531L386.22248578 572.71763973c0 13.87430805 11.26966201 25.11340038 25.18218117 25.11340038 13.90974026 0 25.17940228-11.23909233 25.17940226-25.11340038l0-25.10575829C436.58406989 533.73826863 425.31371332 522.51168159 411.40466762 522.51168159L411.40466762 522.51168159z" fill="#333333" p-id="2981"></path><path d="M612.83780286 522.51168159c-13.90835117 0-25.17940228 11.22658703-25.17940228 25.09950531L587.65840058 572.71763973c0 13.87430805 11.27105111 25.11340038 25.17940228 25.11340038 13.91043549 0 25.18079205-11.23909233 25.18079205-25.11340038l0-25.10575829C638.01859491 533.73826863 626.74754312 522.51168159 612.83780286 522.51168159L612.83780286 522.51168159z" fill="#333333" p-id="2982"></path><path d="M574.02934189 633.17474528c-11.71291708-7.46794849-27.27826475-4.08239511-34.78720457 7.5971734-0.09587637 0.16326805-10.78541562 15.64107599-27.38317367 15.64107601-16.11281643 0-26.13816798-14.55030717-26.8190303-15.57368499-7.39291472-11.59133491-22.77762585-15.11236553-34.53083903-7.84728665-11.81018322 7.31927073-15.44168119 22.7977739-8.10643106 34.57182967 9.04157459 14.51070562 33.83608096 39.07524816 69.45629971 39.07524815 35.43332856 0 60.53908684-24.36723068 69.79325745-38.77650217C589.1514345 656.18233563 585.74156442 640.65728405 574.02934189 633.17474528L574.02934189 633.17474528z" fill="#333333" p-id="2983"></path></svg>