<?xml version="1.0" standalone="no"?><!DOCTYPE svg PUBLIC "-//W3C//DTD SVG 1.1//EN" "http://www.w3.org/Graphics/SVG/1.1/DTD/svg11.dtd"><svg t="1508381987487" class="icon" style="" viewBox="0 0 1162 1024" version="1.1" xmlns="http://www.w3.org/2000/svg" p-id="2416" xmlns:xlink="http://www.w3.org/1999/xlink" width="226.953125" height="200"><defs><style type="text/css"></style></defs><path d="M1004.37311442 847.24520588a35.08023892 35.08023892 0 1 1-70.15419546-1e-8 246.26528586 246.26528586 0 0 0-210.45630326-244.11046471s-17.53383706-9.93856336-17.53383705-38.32189425 17.53383706-39.41501011 17.53383705-39.4150101a158.90393255 158.90393255 0 0 0-17.53383705-312.54959863v-1.03657567a35.30011872 35.30011872 0 0 1 0-70.60023673 34.67817304 34.67817304 0 0 1 12.74045906 2.51291093A229.43506428 229.43506428 0 0 1 819.573633 558.37979478 317.61939659 317.61939659 0 0 1 1004.37311442 847.24520588zM609.11732976 558.37979478a317.61939659 317.61939659 0 0 1 184.79948139 288.85912868 35.08023892 35.08023892 0 1 1-70.15419545 1e-8 245.5365422 245.5365422 0 1 0-491.06051884 0 35.08023892 35.08023892 0 1 1-70.15419546 0A317.61939659 317.61939659 0 0 1 347.3473828 558.37979478a227.99642272 227.99642272 0 1 1 261.76994696 0zM478.23235592 211.83679213a158.85367404 158.85367404 0 1 0 157.84222798 158.85367404A158.35109184 158.35109184 0 0 0 478.23235592 211.83679213z" p-id="2417" fill="#ffffff"></path></svg>