<?xml version="1.0" standalone="no"?><!DOCTYPE svg PUBLIC "-//W3C//DTD SVG 1.1//EN" "http://www.w3.org/Graphics/SVG/1.1/DTD/svg11.dtd"><svg t="1508588251661" class="icon" style="" viewBox="0 0 1024 1024" version="1.1" xmlns="http://www.w3.org/2000/svg" p-id="1900" xmlns:xlink="http://www.w3.org/1999/xlink" width="48" height="48"><defs><style type="text/css"></style></defs><path d="M828.80547841 338.19285583l-104.31904793 0c10.94985008-14.53027725 17.41547585-32.60622024 17.41547585-52.14214325 0-47.90124892-39.00232314-86.90357209-86.90357209-86.90357208-48.31838608 0-88.85021211 38.27233315-108.69898795 61.11059189-12.02745438 13.80028725-22.38636017 28.60865593-30.34672739 42.93036461-7.9603672-14.32170868-18.31927299-29.09531594-30.34672736-42.93036461-19.84877586-22.80349732-60.38060188-61.11059189-108.69898796-61.11059189-47.90124892 0-86.90357209 39.00232314-86.90357208 86.90357209 0 19.535923 6.50038718 37.611866 17.41547585 52.14214324l-104.31904794 0c-9.59415436 0-17.38071443 7.78656006-17.38071441 17.38071442l0 104.28428649c0 9.59415436 7.78656006 17.38071443 17.38071441 17.38071443l17.38071442 0 0 330.23357391c0 28.74770164 23.3944416 52.14214326 52.14214325 52.14214325l486.66000366 0c28.74770164 0 52.14214326-23.3944416 52.14214326-52.14214326l0-330.2335739 17.3807144 0c9.59415436 0 17.38071443-7.78656006 17.38071443-17.38071443l0-104.28428648c0-9.59415436-7.78656006-17.38071443-17.38071443-17.38071443zM572.50946363 283.06122971c27.18343735-31.25052452 57.25207329-49.15266037 82.48887061-49.15266038 28.74770164 0 52.14214326 23.3944416 52.14214326 52.14214326s-23.3944416 52.14214326-52.14214325 52.14214324l-117.42410661 0c6.01372719-15.36455154 18.18022728-35.87379456 34.93523599-55.13162612zM568.09476216 824.8528595l-104.28428649 0 0-451.89857483 104.28428649 0 0 451.89857483zM324.76476033 286.05071258c0-28.74770164 23.3944416-52.14214326 52.14214326-52.14214325 25.23679733 0 55.30543327 17.90213585 82.48887061 49.15266038 16.75500869 19.25783157 28.92150879 39.76707458 34.93523599 55.13162612l-117.42410661 0c-28.74770164 0-52.14214326-23.3944416-52.14214325-52.14214324zM220.48047383 372.95428467l208.568573 0 0 69.52285767-208.568573 0 0-69.52285767zM255.24190266 807.47214508l1e-8-330.23357391 173.80714416 0 0 347.61428833-156.42642975 0c-9.59415436 0-17.38071443-7.78656006-17.38071442-17.38071443zM776.66333516 807.47214508c0 9.59415436-7.78656006 17.38071443-17.38071442 17.38071442l-156.42642975 0 0-347.61428833 173.80714417 0 0 330.23357391zM811.424764 442.47714234l-208.56857301 0 0-69.52285767 208.568573 0 0 69.52285767z" p-id="1901" fill="#ffffff"></path></svg>