<?xml version="1.0" standalone="no"?><!DOCTYPE svg PUBLIC "-//W3C//DTD SVG 1.1//EN" "http://www.w3.org/Graphics/SVG/1.1/DTD/svg11.dtd"><svg t="1508382828593" class="icon" style="" viewBox="0 0 1024 1024" version="1.1" xmlns="http://www.w3.org/2000/svg" p-id="2751" xmlns:xlink="http://www.w3.org/1999/xlink" width="200" height="200"><defs><style type="text/css"></style></defs><path d="M736.31053453 523.99269295c37.76580957 0 68.40552622-33.69375667 68.40552555-75.43230057 0-41.58956674-30.63971665-75.27090842-68.40552555-75.27090841-37.7037353 0-68.34345195 33.69375667-68.34345195 75.27090841 0 41.73854391 30.63971665 75.43230056 68.34345195 75.43230057zM840.55757674 571.92622045c-6.43086433-8.0820322-15.55573941-12.51411438-25.32618444-12.51411438H672.75919336l-23.14117948 194.5398536h181.41741422l18.20009087-152.95028686a39.52871031 39.52871031 0 0 0-8.67794223-29.07545236zM287.62739188 373.27706966c-37.7037353 0-68.34345195 33.69375667-68.34345196 75.27090773 0 41.75095888 30.63971665 75.43230056 68.34345195 75.43230056 37.76580957 0 68.40552622-33.69375667 68.40552555-75.43230056 0-41.58956674-30.63971665-75.27090842-68.40552555-75.27090773zM208.69411843 559.41210606a32.27846953 32.27846953 0 0 0-25.26410949 12.51411438 39.41697744 39.41697744 0 0 0-8.66552791 29.0009631l18.23733515 153.01236114h162.47243551l-23.17842377-194.5398536H208.69411843zM401.78144129 506.66163781c-12.15408511 0-23.9481416 5.63631719-32.11707737 15.91576869a50.19302037 50.19302037 0 0 0-11.02433935 36.83469957v0.03724429l23.17842445 194.50260931h240.68565037l9.58422224-80.50995204 13.25900225-111.4352094 0.29795499-2.4705443a50.19302037 50.19302037 0 0 0-11.01192368-36.94643312c-8.18135077-10.2794508-19.77677015-15.91576868-32.19156595-15.915768H401.78144129zM481.67065334 458.85225818a79.10707989 79.10707989 0 0 0 20.43475443 2.78091431c7.10126361 0 13.97906011-1.04284287 20.58373159-2.80574362 38.05134958-10.19254724 66.36949977-47.87145323 66.36949977-93.0737257 0-52.65114968-38.63484529-95.30838928-86.38215066-95.65600355l-0.45934783-0.02482931h-0.11173287c-47.9335275 0-86.87874277 42.83104605-86.87874278 95.69324718 0.01241499 45.23951677 28.38022378 82.94325205 66.44398835 93.08614069z" p-id="2752" fill="#ffffff"></path></svg>