<?xml version="1.0" standalone="no"?><!DOCTYPE svg PUBLIC "-//W3C//DTD SVG 1.1//EN" "http://www.w3.org/Graphics/SVG/1.1/DTD/svg11.dtd"><svg t="1508389084136" class="icon" style="" viewBox="0 0 1024 1024" version="1.1" xmlns="http://www.w3.org/2000/svg" p-id="1704" xmlns:xlink="http://www.w3.org/1999/xlink" width="200" height="200"><defs><style type="text/css"></style></defs><path d="M511.20355555 1021.26933333c95.91466667 0 185.68533333-26.51022222 262.25777778-72.59022222h-524.51555555c76.68622222 45.96622222 166.34311111 72.59022222 262.25777777 72.59022222zM885.07733333 855.83644445c-13.53955555-71.68-139.264-140.06044445-252.01777778-177.26577778-5.46133333-1.82044445-39.82222222-17.29422222-18.31822222-82.48888889h-0.22755555c55.97866667-57.57155555 98.75911111-150.30044445 98.75911111-241.664 0-140.288-93.41155555-213.90222222-201.95555556-213.90222223-108.65777778 0-201.50044445 73.61422222-201.50044444 213.90222223 0 91.59111111 42.55288889 184.77511111 98.87288889 242.23288889 21.95911111 57.57155555-17.29422222 78.848-25.48622223 81.92-107.29244445 38.79822222-231.87911111 107.52-245.64622222 177.26577778-84.19555555-90.79466667-135.96444445-211.74044445-136.07822222-344.97422223v0.34133333c0 185.68533333 99.21422222 348.16 247.46666667 437.36177778h524.51555555c148.25244445-89.20177778 247.46666667-251.67644445 247.46666667-437.36177778v-0.34133333c-0.11377778 133.23377778-51.88266667 254.17955555-135.85066667 344.97422223z" fill="#ffffff" p-id="1705"></path><path d="M1020.928 510.86222222v-0.34133333c0-281.25866667-228.23822222-509.26933333-509.72444445-509.26933334 281.48622222-0.11377778 509.61066667 228.01066667 509.72444445 509.61066667zM511.20355555 1.13777778c-281.48622222 0-509.72444445 228.01066667-509.72444444 509.26933333v0.34133334C1.70666667 229.26222222 229.83111111 1.13777778 511.20355555 1.13777778z" fill="#ffffff" p-id="1706"></path><path d="M383.08977778 678.45688889c8.192-2.95822222 47.44533333-24.34844445 25.48622222-81.92-56.32-57.45777778-98.87288889-150.64177778-98.87288889-242.23288889 0-140.288 92.84266667-213.90222222 201.50044444-213.90222222 108.544 0 201.95555555 73.61422222 201.95555556 213.90222222 0 91.24977778-42.78044445 183.97866667-98.75911111 241.664h0.22755555c-21.504 65.19466667 12.85688889 80.66844445 18.31822223 82.48888889 112.64 37.20533333 238.47822222 105.69955555 252.01777777 177.26577778 83.968-90.68088889 135.73688889-211.62666667 135.85066667-344.97422222C1020.81422222 229.26222222 792.68977778 1.13777778 511.20355555 1.13777778 229.83111111 1.13777778 1.70666667 229.26222222 1.47911111 510.86222222c0.11377778 133.34755555 51.88266667 254.29333333 135.85066667 344.97422223 13.88088889-69.74577778 138.46755555-138.58133333 245.76-177.37955556z" fill="#ffffff" p-id="1707"></path></svg>