<?xml version="1.0" standalone="no"?><!DOCTYPE svg PUBLIC "-//W3C//DTD SVG 1.1//EN" "http://www.w3.org/Graphics/SVG/1.1/DTD/svg11.dtd"><svg t="1508383051993" class="icon" style="" viewBox="0 0 1024 1024" version="1.1" xmlns="http://www.w3.org/2000/svg" p-id="3581" xmlns:xlink="http://www.w3.org/1999/xlink" width="200" height="200"><defs><style type="text/css"></style></defs><path d="M512 837.88839531c-179.97186631 0-325.88839531-145.916529-325.88839531-325.88839531 0-179.97186631 145.916529-325.88839531 325.88839531-325.88839531 179.97186631 0 325.88839531 145.916529 325.88839531 325.88839531C837.88839531 691.97186631 691.97186631 837.88839531 512 837.88839531zM495.29821974 706.67758016l77.31702179 0 0-74.70991463L495.29821974 631.96766553 495.29821974 706.67758016zM624.47223243 349.62610703c-25.74518323-18.61637458-58.13034251-27.94492989-97.07400576-27.94492989-29.65584397 0-54.62704227 6.55850396-74.99506696 19.63477581C420.14020857 361.84692186 402.99033177 396.67624411 400.91279324 445.8039197l74.70991463 1e-8c0-14.29835335 4.1958131-28.06713805 12.50596716-41.38782621C496.52030123 391.17687744 510.65571037 384.53690138 530.61637458 384.53690138c20.28655261 0 34.25901757 5.37715853 41.91739485 16.17221162 7.65837728 10.79505309 11.44682989 22.73071557 11.44682988 35.80698744 0 11.36535779-3.42182815 21.83452249-10.30622049 31.28528594C569.92666227 473.30075307 564.91612819 478.39275923 558.72424868 483.03666886L539.94492989 497.78311874c-18.57563853 14.46129754-30.10394051 27.29315311-34.5441699 38.41409461-4.48096543 11.12094149-7.21028075 31.28528595-8.26941803 60.37082523l70.10674104 0c0.1629442-13.80952076 1.26281753-23.95279706 3.34035606-30.55203707C573.83732301 555.66904497 580.43656302 546.66637806 590.41689513 538.88579261l18.29048618-14.21688124c18.57563853-14.46129754 31.16307781-26.35622397 37.68084571-35.68477929 11.12094149-15.31675458 16.74251631-34.2182815 16.74251631-56.62310869C663.13074333 395.82078707 650.25815171 368.24248162 624.47223243 349.62610703z" p-id="3582" fill="#ffffff"></path></svg>