<?xml version="1.0" standalone="no"?><!DOCTYPE svg PUBLIC "-//W3C//DTD SVG 1.1//EN" "http://www.w3.org/Graphics/SVG/1.1/DTD/svg11.dtd"><svg t="1508389178849" class="icon" style="" viewBox="0 0 1024 1024" version="1.1" xmlns="http://www.w3.org/2000/svg" p-id="1871" xmlns:xlink="http://www.w3.org/1999/xlink" width="200" height="200"><defs><style type="text/css"></style></defs><path d="M509.6 696.8a187.2 187.2 0 1 1 187.2-187.2 187.2 187.2 0 0 1-187.2 187.2z m0-326.4a139.2 139.2 0 1 0 139.2 139.2 139.2 139.2 0 0 0-139.2-139.2z" fill="#ffffff" p-id="1872"></path><path d="M899.408 899.408H509.6a389.808 389.808 0 1 1 389.808-389.808z m-389.808-734.4a344.592 344.592 0 0 0 0 689.184h344.592V509.6A344.976 344.976 0 0 0 509.6 165.008z" fill="#ffffff" p-id="1873"></path></svg>