<?xml version="1.0" standalone="no"?><!DOCTYPE svg PUBLIC "-//W3C//DTD SVG 1.1//EN" "http://www.w3.org/Graphics/SVG/1.1/DTD/svg11.dtd"><svg t="1508381724186" class="icon" style="" viewBox="0 0 1024 1024" version="1.1" xmlns="http://www.w3.org/2000/svg" p-id="2084" xmlns:xlink="http://www.w3.org/1999/xlink" width="200" height="200"><defs><style type="text/css"></style></defs><path d="M134.57224619 412.63177168l0 204.70301103c-0.73030518 13.01237754-1.96786583 88.16722295 59.60348877 155.48388223 65.55475372 71.69668945 176.08261641 108.03655107 328.55174209 108.03655108 14.48827734 0 355.38684785-2.79260684 366.87565811-248.31893936L889.60313516 412.63177168 134.57224619 412.63177168zM522.72747705 815.9822c-130.76054473 0-227.45038887-29.67448096-279.69146895-85.81981377-47.36818477-50.9396625-43.89384023-106.79809131-43.73464833-108.892771l0.12681387-143.78101611 625.3010455 0 0.03237803 153.55648828C816.22458565 813.50707783 525.69546435 815.9822 522.72747705 815.9822z" p-id="2085" fill="#ffffff"></path><path d="M315.82815489 285.36266006c39.27547089 0 71.10848848-31.83301758 71.10848847-71.10848848s-31.83301758-71.10848848-71.10848847-71.10848848-71.10848848 31.83301758-71.10848848 71.10848848S276.55178398 285.36266006 315.82815489 285.36266006z" p-id="2086" fill="#ffffff"></path><path d="M711.91870508 285.36266006c39.27547089 0 71.10848848-31.83301758 71.10848848-71.10848848s-31.8339167-71.10848848-71.10848848-71.10848848c-39.2763709 0-71.10848848 31.83301758-71.10848848 71.10848848S672.64233418 285.36266006 711.91870508 285.36266006z" p-id="2087" fill="#ffffff"></path></svg>