<?xml version="1.0" standalone="no"?><!DOCTYPE svg PUBLIC "-//W3C//DTD SVG 1.1//EN" "http://www.w3.org/Graphics/SVG/1.1/DTD/svg11.dtd"><svg t="1508381712614" class="icon" style="" viewBox="0 0 1024 1024" version="1.1" xmlns="http://www.w3.org/2000/svg" p-id="1918" xmlns:xlink="http://www.w3.org/1999/xlink" width="200" height="200"><defs><style type="text/css"></style></defs><path d="M512 587.09375c-129.7265625 0-235.30078125-105.52148438-235.30078125-235.24804688C276.69921875 222.06640625 382.22070312 116.4921875 512 116.4921875s235.35351563 105.57421875 235.35351563 235.30078125C747.30078125 481.51953125 641.7265625 587.09375 512 587.09375z m0-430.25976563c-107.52539063 0-195.01171875 87.48632813-195.01171875 195.01171876 0 107.52539063 87.48632813 194.95898438 195.01171875 194.95898437 107.52539063 0 195.01171875-87.43359375 195.01171875-194.95898438C707.01171875 244.26757812 619.52539063 156.83398437 512 156.83398437zM832.4140625 907.5078125c-11.12695313 0-20.14453125-9.01757813-20.14453125-20.14453125 0-95.9765625-44.24414063-183.83203125-121.34179688-241.15429688-8.91210938-6.64453125-10.81054688-19.24804688-4.16601562-28.21289062 6.64453125-8.96484375 19.30078125-10.7578125 28.21289063-4.16601562 86.16796875 64.01953125 137.63671875 166.27148438 137.63671874 273.53320312 0 11.12695313-9.0703125 20.14453125-20.19726562 20.14453125z" fill="#ffffff" p-id="1919"></path><path d="M191.5859375 907.5078125c-11.12695313 0-20.14453125-9.01757813-20.14453125-20.14453125C171.44140625 699.57617188 324.21289062 546.8046875 512 546.8046875c11.12695313 0 20.14453125 9.01757813 20.14453125 20.14453125S523.12695313 587.09375 512 587.09375c-165.5859375 0-300.26953125 134.68359375-300.26953125 300.26953125 0 11.12695313-9.01757813 20.14453125-20.14453125 20.14453125z" fill="#ffffff" p-id="1920"></path></svg>