<?xml version="1.0" standalone="no"?><!DOCTYPE svg PUBLIC "-//W3C//DTD SVG 1.1//EN" "http://www.w3.org/Graphics/SVG/1.1/DTD/svg11.dtd"><svg t="1508421170494" class="icon" style="" viewBox="0 0 1024 1024" version="1.1" xmlns="http://www.w3.org/2000/svg" p-id="1541" xmlns:xlink="http://www.w3.org/1999/xlink" width="48" height="48"><defs><style type="text/css"></style></defs><path d="M505.52941763 809.96682106L505.52941763 634.92910873c0-97.70286851-67.78733224-179.49321773-159.12519302-201.13424397L346.40422461 412.1538385c0-26.41478205-21.32277587-47.73755791-47.73755791-47.73755792s-47.73755791 21.32277587-47.73755791 47.73755792l0 21.64102626c-91.33786079 21.64102626-159.12519302 103.43137547-159.12519302 201.13424397l0 175.03771233L28.15383856 873.61689826l0 31.82503862 541.02565628 0 0-31.82503862L505.52941763 809.96682106zM298.6666667 1000.9170527c43.79125312 0 79.56259651-28.64253474 79.56259651-63.65007722L219.10407019 937.26697548C219.10407019 972.27451795 254.87541358 1000.9170527 298.6666667 1000.9170527z" fill="#4884F4" p-id="1542"></path></svg>