<?xml version="1.0" standalone="no"?><!DOCTYPE svg PUBLIC "-//W3C//DTD SVG 1.1//EN" "http://www.w3.org/Graphics/SVG/1.1/DTD/svg11.dtd"><svg t="1508380541588" class="icon" style="" viewBox="0 0 1024 1024" version="1.1" xmlns="http://www.w3.org/2000/svg" p-id="2246" xmlns:xlink="http://www.w3.org/1999/xlink" width="200" height="200"><defs><style type="text/css"></style></defs><path d="M722.09794011 449.73778805C629.60144316 244.19210945 581.48657944 166.11363277 430.36858198 169.37975652c-53.83528844 1.1319183-40.93445969-40.29571843-81.98986018-24.58790501-40.97429049 15.70781342-5.80081055 38.70465959-47.7491445 74.26775721C182.89919209 318.87917639 193.73099237 411.20041783 248.33610162 631.23870822c23.00264047 92.69854777-55.45748773 97.22332492-24.42206475 187.03088198 22.67747627 65.51295087 189.82120939 92.94984394 366.1325408 25.42652448 176.31205563-67.52404292 287.47036108-201.65022815 264.79216062-267.16317902-31.03469878-89.84956044-93.75442544-40.25443924-132.74079818-126.79514761zM570.93866345 788.31973623c-157.4873022 60.31829202-286.90186688 24.8812053-292.37896234 9.0893851-9.41165251-27.2268761 50.83277147-117.95705868 230.87733407-186.94687446 180.04383768-68.98981577 280.53256286-43.39600192 291.03992313-13.02683895 6.20636055 17.97020163-72.00971347 130.52330941-229.53829486 190.88360411z m-50.62927227-146.35713228c-82.31430018 31.54163628-139.51637639 67.60732551-176.59594062 100.07086384 26.08554324 24.46261976 74.93039623 30.41044218 123.57247566 11.77035885 61.94773328-23.66672787 100.04262019-78.16320767 84.99165222-121.64321636-0.202775-0.54459572-0.44682921-0.96318053-0.64960349-1.50777625-10.18219679 3.43486224-20.60844778 7.16229911-31.31858377 11.30976992z" p-id="2247"></path></svg>