<?xml version="1.0" standalone="no"?><!DOCTYPE svg PUBLIC "-//W3C//DTD SVG 1.1//EN" "http://www.w3.org/Graphics/SVG/1.1/DTD/svg11.dtd"><svg t="1508388984359" class="icon" style="" viewBox="0 0 1024 1024" version="1.1" xmlns="http://www.w3.org/2000/svg" p-id="1539" xmlns:xlink="http://www.w3.org/1999/xlink" width="200" height="200"><defs><style type="text/css"></style></defs><path d="M652.7813357 884.74249791L372.08817277 884.74249791c-103.31342297 0-187.10242664-83.78900368-187.10242664-187.10242663L184.98574613 510.45859868c0-51.69623446 41.89450184-93.5907363 93.59073628-93.59073629l0-46.7163222C278.57648242 240.98999998 383.23369108 136.2537454 512.47427722 136.2537454c129.16154019 0 233.89779479 104.7362546 233.89779479 233.89779479l0 46.7163222c51.69623446 0 93.5907363 41.89450184 93.59073628 93.59073629l0 187.10242665C839.88376234 800.95349424 756.09475867 884.74249791 652.7813357 884.74249791L652.7813357 884.74249791zM465.67890906 684.59744336l0 59.6799034c0 25.84811723 20.94725092 46.79536815 46.79536815 46.79536814 25.76907128 0 46.79536815-20.94725092 46.79536815-46.79536814l0-59.6799034c27.82427278-16.20447727 46.79536815-46.08395233 46.79536814-80.54810839 0-51.69623446-41.89450184-93.5907363-93.59073629-93.59073629S418.88354092 552.35310052 418.88354092 604.04933497C418.88354092 638.51349102 437.77558956 668.39296608 465.67890906 684.59744336L465.67890906 684.59744336zM512.47427722 229.76543497c-77.54435168 0-140.30705849 62.84175277-140.3070585 140.38610444 0 16.52066182 3.39898796 32.09276922 8.61603881 46.7163222l263.4610853 0c5.21705086-14.70259892 8.61603882-30.27470632 8.61603882-46.7163222C652.7813357 292.6071885 589.93958295 229.76543497 512.47427722 229.76543497L512.47427722 229.76543497z" p-id="1540" fill="#ffffff"></path></svg>