<?xml version="1.0" standalone="no"?><!DOCTYPE svg PUBLIC "-//W3C//DTD SVG 1.1//EN" "http://www.w3.org/Graphics/SVG/1.1/DTD/svg11.dtd"><svg t="1508588195181" class="icon" style="" viewBox="0 0 1027 1024" version="1.1" xmlns="http://www.w3.org/2000/svg" p-id="3120" xmlns:xlink="http://www.w3.org/1999/xlink" width="48.140625" height="48"><defs><style type="text/css"></style></defs><path d="M800.51985932 225.21821213L223.48014068 225.21821213C190.4567833 225.21821213 164.38571167 251.28928375 164.38571167 282.57456971l0 469.27928924c0 33.02335739 26.07107163 59.09442902 59.09442902 59.09442902l578.77779007 0c33.02335739 0 59.09442902-26.07107163 59.09442901-59.09442902l0-469.27928924C859.61428833 251.28928375 833.5432167 225.21821213 800.51985932 225.21821213zM824.8528595 751.85385897c0 12.16650009-10.42842865 24.33300019-24.33300019 24.33300016L223.48014068 776.18685913c-12.16650009 0-24.33300019-10.42842865-24.33300018-24.33300018L199.1471405 616.2842865l177.28328706-149.47414398 185.97364425 179.02135848c6.95228576 6.95228576 15.64264297 6.95228576 22.59492874 0l88.64164352-72.99900054 145.9980011 149.47414398c1.73807143 1.73807143 3.47614289 1.73807143 5.21421433 3.47614289L824.8528595 751.85385897zM824.8528595 678.8548584l-137.30764389-140.78378677c-6.95228576-6.95228576-17.38071443-6.95228576-24.33300018-1.73807145l-88.64164353 72.99900055L388.59692764 432.04871369c-6.95228576-6.95228576-15.64264297-6.95228576-22.59492874 0l-166.8548584 139.04571532L199.1471405 282.57456971c0-12.16650009 10.42842865-24.33300019 24.33300019-24.3330002l578.77779007 0c12.16650009 0 24.33300019 10.42842865 24.33300018 24.3330002L826.59093094 678.8548584z" p-id="3121" fill="#ffffff"></path></svg>