<?xml version="1.0" standalone="no"?><!DOCTYPE svg PUBLIC "-//W3C//DTD SVG 1.1//EN" "http://www.w3.org/Graphics/SVG/1.1/DTD/svg11.dtd"><svg t="1508425603508" class="icon" style="" viewBox="0 0 1024 1024" version="1.1" xmlns="http://www.w3.org/2000/svg" p-id="1601" xmlns:xlink="http://www.w3.org/1999/xlink" width="48" height="48"><defs><style type="text/css"></style></defs><path d="M724.06668061 512c0 117.15189638-94.91668869 212.0628717-212.06287169 212.0628717-117.14999194 0-212.0628717-94.91287977-212.0628717-212.0628717 0-117.14618301 94.91478423-212.0628717 212.0628717-212.0628717 117.14618301 0 212.0628717 94.91668869 212.06287169 212.0628717z" fill="#1afa29" p-id="1602" class=""></path><path d="M512.00087786 821.54525659C341.31787299 821.54525659 202.45562127 682.68388273 202.45562127 512c0-170.68212701 138.86137452-309.54437873 309.54525659-309.54437873 170.68124916 0 309.54437873 138.86137452 309.54437873 309.54437873 0 170.68300489-138.86225238 309.54525659-309.54437873 309.54525659z m0-521.3380397c-116.77908928 0-211.79366096 95.01457237-211.79366097 211.79278311 0 116.77996645 95.01457237 211.79453884 211.79366097 211.79453884S723.79453884 628.77996645 723.79453884 512c0-116.77821141-95.0136945-211.79278311-211.79366098-211.79278311z" fill="#ffffff" p-id="1603" class="selected"></path></svg>