<?xml version="1.0" standalone="no"?><!DOCTYPE svg PUBLIC "-//W3C//DTD SVG 1.1//EN" "http://www.w3.org/Graphics/SVG/1.1/DTD/svg11.dtd"><svg t="1508382854862" class="icon" style="" viewBox="0 0 1024 1024" version="1.1" xmlns="http://www.w3.org/2000/svg" p-id="2916" xmlns:xlink="http://www.w3.org/1999/xlink" width="200" height="200"><defs><style type="text/css"></style></defs><path d="M124.54384766 366.20351562c18.95273437-4.24863281 36.64511719-1.80791016 53.32148437 7.12617188 16.69833984 8.94814453 28.33857422 22.6125 35.015625 39.34423828 6.09345703-6.19628906 11.60771484-13.18007812 18.43242188-18.478125 18.33574219-14.22949219 45.76992188-13.78740234 64.86416015-0.1125 17.70029297 12.67646484 29.32119141 38.11552734 19.72265625 61.77128906-6.45820312 15.91435547-13.19501953 31.71181641-19.8140625 47.56025391-9.68642578 23.203125-10.44140625 46.31748047-0.40517578 69.77460938 9.49130859 22.17744141 22.72675781 41.01767578 44.52451172 52.52958984 29.90478516 15.79658203 63.50800781 10.17333984 86.85791016-15.65068359 22.75400391-25.17011719 29.65957031-55.28847656 22.53339843-88.22373047-3.05947266-14.14951172-11.87314453-25.71767578-20.77646484-36.91845703-14.67773438-18.4640625-32.16884766-34.09013672-50.00361328-49.36816407-1.45283203-1.24277344-2.83798828-2.56113281-4.31191406-3.77666015-17.54648437-14.46503906-22.03857422-32.95546875-15.11455078-53.88837891 7.15166016-21.63164062 22.65380859-34.85654297 45.35947265-37.87470703 9.04394531-1.20322266 18.49130859 0.64335938 27.91933594 1.10830078-8.52451172-33.10839844-1.14697266-63.18984375 26.31533203-86.85 17.94111328-15.45820312 39.36445313-20.87929687 62.72578125-18.28740234 46.71035156 5.18203125 83.67539062 51.53115234 68.69443359 105.85195312 10.01601562-3.66328125 20.02236328-4.83574219 30.29501954-3.25546875 30.61230469 4.70654297 51.69990234 34.2984375 46.2524414 64.75253906-1.87998047 10.50556641-8.0859375 18.21708984-15.46259765 25.30546875-15.02050781 14.44306641-30.55957031 28.40712891-44.83476563 43.5515625-8.50166016 9.01669922-16.06025391 19.30166016-22.22050781 30.05507813-17.03056641 29.73603516-12.34248047 59.58369141 2.55234375 88.4821289 9.68203125 18.77519531 24.77373047 32.28134766 45.29970703 38.39414063 29.52773438 8.79345703 54.49658203-0.1546875 75.39257812-21.59560547 17.31884766-17.76445312 26.68095703-39.62285156 30.10869141-63.93515625 2.04697266-14.5265625-2.23066406-28.30693359-7.60341797-41.56523437-5.86230469-14.46503906-12.29941406-28.70419922-18.73388672-42.93105469-9.56601562-21.14648438-7.67988281-40.95878906 7.07431641-58.98339844 23.79023437-29.06542969 70.37578125-25.69482422 90.13359375 6.29912109 0.61347656 0.99404297 1.30341797 1.94150391 2.32382812 3.44707032 8.68886719-21.58857422 23.034375-37.10390625 44.40585938-45.55107422 14.08183594-5.56699219 28.56796875-6.84052734 44.06835937-3.4725586-2.30537109 8.96572266-4.5421875 17.63261719-6.75615234 26.30478516-27.82265625 109.14873047-55.63828125 218.29570312-83.45830078 327.44355469-0.25927734 1.00810547-0.71367187 2.00478516-0.76904297 3.02607422-0.22412109 4.12207031-2.60507812 4.77333984-6.28066406 4.79179687-51.6515625 0.25136719-103.30048828 0.66181641-154.94941406 0.99228516-65.90654297 0.42275391-131.81748047 0.7875-197.72226563 1.21376953-49.73554688 0.31728516-99.47109375 0.66533203-149.20839844 1.04414063-24.34482422 0.18457031-48.68876953 0.34365234-73.0274414 0.82792968-4.55976562 0.08613281-6.10927734-1.40185547-7.26240235-5.68652343-31.34794922-116.46210937-62.85673828-232.88027344-94.32509765-349.30810547-0.43769531-1.62333984-0.72333984-3.28974609-1.153125-5.28486329zM224.16171875 788.63134766v-42.54960938l580.86826172-4.01044922c0.20390625 1.68574219 0.42802734 2.69736328 0.43154297 3.7125 0.02197266 12.6703125 0.01582031 25.33798828 0.01582031 38.82744141-193.64765625 1.33417969-387.26806641 2.67890625-581.315625 4.02011719z" p-id="2917" fill="#ffffff"></path></svg>