<?xml version="1.0" standalone="no"?><!DOCTYPE svg PUBLIC "-//W3C//DTD SVG 1.1//EN" "http://www.w3.org/Graphics/SVG/1.1/DTD/svg11.dtd"><svg t="1508396363460" class="icon" style="" viewBox="0 0 1025 1024" version="1.1" xmlns="http://www.w3.org/2000/svg" p-id="1509" xmlns:xlink="http://www.w3.org/1999/xlink" width="200.1953125" height="200"><defs><style type="text/css"></style></defs><path d="M512.54073357 774.87364984A392.41790796 392.41790796 0 0 1 141.21142578 511.92275214a393.74656654 393.74656654 0 0 1 742.65861488 0A392.41790796 392.41790796 0 0 1 512.54073357 774.87364984z m0-461.32278491a198.23284149 198.23284149 0 1 0 196.44069648 198.2173922A197.29042077 197.29042077 0 0 0 512.54073357 313.55086493z m0 317.17872668a118.96133447 118.96133447 0 0 1 0-237.92266893 115.42339301 115.42339301 0 0 1 34.40608955 5.71632433 59.37252045 59.37252045 0 0 0 24.53384376 113.24501012 58.70819116 58.70819116 0 0 0 53.2236104-34.76142883 117.53997802 117.53997802 0 0 1-112.16354371 153.72276331z" p-id="1510" fill="#ffffff"></path></svg>