<?xml version="1.0" standalone="no"?><!DOCTYPE svg PUBLIC "-//W3C//DTD SVG 1.1//EN" "http://www.w3.org/Graphics/SVG/1.1/DTD/svg11.dtd"><svg t="1508589395006" class="icon" style="" viewBox="0 0 1024 1024" version="1.1" xmlns="http://www.w3.org/2000/svg" p-id="1928" xmlns:xlink="http://www.w3.org/1999/xlink" width="48" height="48"><defs><style type="text/css"></style></defs><path d="M194.52039433 784.03251362l544.13107395 0c16.9740057 0 30.25634766-12.05178738 30.25634766-30.13120652l0-60.51269531 60.38755416 0c16.48039341 0 31.36176109-11.56165122 30.25634765-30.25634766L859.55171775 270.28640461c0-19.925251-17.0956707-31.36523723-30.25634765-30.25634765L285.29291343 240.03005696c-17.58928298 0-31.36176109 12.66706467-30.25634766 30.25634765l0 60.39103031L194.52039433 330.67743492c-15.00650883-0.121665-30.13120652 14.26609039-30.13120651 30.25634765l0 392.96752453C164.38918782 776.40585613 182.34694195 784.40098477 194.52039433 784.03251362zM224.78021812 753.9013071c-19.925251 0-30.25634766-14.14442539-30.25634766-30.25634765l0-60.51269532 120.90372564-120.90372562 151.16007328 151.16007328 120.28844832-59.16395187 151.77535058 119.67664718C738.03271484 753.65450096 224.78021812 753.9013071 224.78021812 753.9013071zM285.29291343 300.41761112c0-26.68982505 13.5291481-30.13120652 30.13120652-30.13120651l483.74004365 0c22.26121902 0 30.13120652 13.4074831 30.1312065 30.13120651 0 0-1.47388459 332.82330037 0 332.57649422 0 24.23219204-3.44138145 28.65732193-30.1312065 30.13468266l-30.25634766 0L768.90781594 360.93378257c0-19.67844487-6.88623906-30.25634766-30.25634766-30.25634765L285.29291343 330.67743492 285.29291343 300.41761112zM224.78021812 360.93378257l483.61837864 0c16.23358726 0 30.25634766 14.0227604 30.25634765 30.25634766l0 332.45482922-151.16007327-120.90372563-120.90372562 60.39103031-151.16007329-151.03840827L194.52039433 632.99758148 194.52039433 391.19013023C194.52039433 374.95654297 199.68594265 360.93378257 224.78021812 360.93378257z" p-id="1929" fill="#ffffff"></path><path d="M587.49139499 451.58116055c16.72719955 0 30.25634766 13.5291481 30.25634766 30.25634766 0 16.60205841-13.53262424 30.25634766-30.25634766 30.25634765-16.60553455 0-30.13468266-13.65428924-30.13468264-30.25634765C557.35671235 465.11030864 570.8823843 451.58116055 587.49139499 451.58116055z" p-id="1930" fill="#ffffff"></path></svg>