<?xml version="1.0" standalone="no"?><!DOCTYPE svg PUBLIC "-//W3C//DTD SVG 1.1//EN" "http://www.w3.org/Graphics/SVG/1.1/DTD/svg11.dtd"><svg t="1508383036663" class="icon" style="" viewBox="0 0 1024 1024" version="1.1" xmlns="http://www.w3.org/2000/svg" p-id="3416" xmlns:xlink="http://www.w3.org/1999/xlink" width="200" height="200"><defs><style type="text/css"></style></defs><path d="M487.00902101 188.93077394c16.82542594 0 33.65233431 0 50.47924267 0 16.4311553 3.13860217 32.81413849 6.5840232 49.32088686 9.26239564 6.59291704 1.07164561 9.03191069 4.1843085 9.88122292 10.48226323 2.41231353 17.89040169 4.82536864 35.81637591 8.42420054 53.48666753 0.94639801 4.64453824 5.38194257 9.71891965 9.61219989 12.35875468 18.10532364 11.30044878 37.05773551 21.26245293 54.99705015 32.80672706 6.14973272 3.95752857 10.78463626 4.37106789 17.10704783 1.82757778 16.34740994-6.57735335 32.97866505-12.45065232 49.30384145-19.07321361 5.93258749-2.40638526 9.5907079-1.46888038 13.98549179 3.36538138 33.3306926 36.68125185 57.31598435 78.59844755 70.95982416 126.21848665 1.10647729 3.86192523-1.12055857 10.67939892-4.20209477 13.39705033-13.54082505 11.93780393-28.26372188 22.53123349-41.84975489 34.41641876-3.32980813 2.91256308-5.46939363 8.82143531-5.62873206 13.44373999-0.76927259 22.17994754-0.94639801 44.3917626-0.63883685 66.58505054 0.05928852 4.2458203 2.09511839 9.74485891 5.16998474 12.45732218 13.86543161 12.21349682 28.69727077 23.33311521 42.52490587 35.5895967 2.76730594 2.45529821 4.6489848 8.72657282 3.60401931 12.24981166-14.09591726 47.51109607-38.58961085 89.11628404-72.29752796 125.45217819-4.76904426 5.13811721-8.5902088 6.28757918-15.10605034 3.48025343-16.1806601-6.95828428-32.54140973-13.61048984-49.20749726-19.2740543-4.54226504-1.54447346-11.20336373-0.60400517-15.56183278 1.70307102-18.86347909 9.98201369-36.9310062 21.49219701-55.94344816 31.15923956-6.98644611 3.55288236-9.96422743 7.69791189-11.00622805 14.89261012-2.40786696 16.6216204-5.78510633 33.11577065-7.74756643 49.77963415-0.98122969 8.33526704-4.80165338 11.41532082-12.54625566 12.59813349-13.60752499 2.07436726-27.09499051 4.94024068-40.63211058 7.47483765-18.50996986 0-37.01845726 0-55.52768553 0-14.38643228-2.68207815-28.7469253-5.52497716-43.1696717-7.98398035-8.27449611-1.412556-12.97980456-4.6274921-13.76389928-14.20856602-1.33622209-16.286639-3.8159764-32.55326773-7.0827903-48.5701421-1.06645747-5.22260414-5.02250433-11.31008349-9.47435344-14.13000809-18.72192694-11.86221086-38.00265109-22.87585034-57.40343542-33.60786792-3.75224133-2.07436726-9.53216024-3.15861172-13.41705986-1.85055219-17.07814442 5.75249795-33.90875851 12.29650132-50.6037487 19.09989302-6.33056386 2.57980495-10.22732148 1.92985097-15.06528897-3.43504618-32.58587685-36.11578479-56.13613728-77.19478466-70.66412099-123.64164584-2.39008071-7.64455238-1.49259636-12.14531445 4.99211849-16.9669781 14.15520577-10.52080135 28.04657594-21.4558829 41.32208438-33.0527757 3.28682418-2.86957913 5.19962974-8.86145513 5.36267387-13.49932351 0.75296804-21.74936278 0.98790025-43.53059238 0.64106012-65.28958986-0.07411137-4.64750237-2.07214398-10.66680008-5.365638-13.61419556-13.45263312-12.03340727-27.51742371-23.42204798-41.85494232-34.40011421-5.69246786-4.36217477-6.47359772-8.37899257-4.35846905-14.89928067 15.14607017-46.66326554 39.16100691-87.99868961 72.55914029-123.99663824 4.77200912-5.14330535 8.56575197-6.23866622 15.02082257-3.49062898 16.59197614 7.0598159 33.34847886 13.81800037 50.38882674 19.67499479 4.13984212 1.42367315 10.30587939 0.18750097 14.38346743-1.99432762 19.18882652-10.25177831 38.17014251-20.93784709 56.75274057-32.24126001 4.28435842-2.60648508 8.63245192-7.86169762 9.64036244-12.60183848 3.57437506-16.80541567 6.13787474-33.86725626 8.21891257-50.93576595 0.99086438-8.13813136 4.71790803-11.52722872 12.44694661-12.73375665C458.38363758 194.45649195 472.67520811 191.55726857 487.00902101 188.93077394zM511.78656048 645.76965897c73.65672443 0.22677994 133.77336469-58.91381805 134.22840628-132.04583609 0.46171144-74.37486007-58.65072399-134.82055345-132.323753-135.30968587-73.98058943-0.48987399-134.56561097 59.08130874-135.02880484 132.77212474C378.19921434 585.04160285 438.04312583 645.5399149 511.78656048 645.76965897z" p-id="3417" fill="#ffffff"></path></svg>