<?xml version="1.0" standalone="no"?><!DOCTYPE svg PUBLIC "-//W3C//DTD SVG 1.1//EN" "http://www.w3.org/Graphics/SVG/1.1/DTD/svg11.dtd"><svg t="1508380577828" class="icon" style="" viewBox="0 0 1024 1024" version="1.1" xmlns="http://www.w3.org/2000/svg" p-id="2735" xmlns:xlink="http://www.w3.org/1999/xlink" width="200" height="200"><defs><style type="text/css"></style></defs><path d="M655.80606217 222.34651889A69.66495383 69.66495383 0 0 0 575.13375594 165.42692035L332.24783544 207.86316074a69.5201202 69.5201202 0 0 0-56.48509767 81.10680645L366.28372806 801.68085506a69.66495383 69.66495383 0 0 0 68.36145117 57.93343327 70.53395561 70.53395561 0 0 0 12.31085507-1.15866835l243.03075345-43.45007581a69.5201202 69.5201202 0 0 0 56.48509767-80.67230624zM304.29495386 283.90079222A40.69823686 40.69823686 0 0 1 337.17217745 236.82987704l243.03075414-43.45007512a42.14657314 42.14657314 0 0 1 7.09684511 0A40.69823686 40.69823686 0 0 1 627.8531806 226.98119367L705.9184822 671.330629l-323.12372586 57.93343395z m406.83753763 486.6408421A40.4085696 40.4085696 0 0 1 684.91761278 787.19749623l-243.03075414 43.45007512a40.69823686 40.69823686 0 0 1-47.07091517-33.02205723l-6.95201147-39.53956781L710.84282422 700.29734597l6.95201216 39.53956851a40.4085696 40.4085696 0 0 1-6.66234489 30.70471984z" fill="#333333" p-id="2736"></path><path d="" fill="#333333" p-id="2737"></path><path d="M726.03586681 304.43819403l28.53221609-5.04020825 50.34415384 285.26422677-28.53221609 5.04020893zM796.23670542 326.22116503l28.53221609-4.98227479 34.83247657 199.75447867-28.53221608 4.98227548zM219.06038931 413.19373245l28.53221609-5.02572524L297.92227621 693.41775097l-28.53221608 5.04020825zM164.41467839 478.32539539l28.53221609-4.99675918 34.97731021 199.72551263-28.5322161 4.99675851z" fill="#333333" p-id="2738"></path></svg>