<?xml version="1.0" standalone="no"?><!DOCTYPE svg PUBLIC "-//W3C//DTD SVG 1.1//EN" "http://www.w3.org/Graphics/SVG/1.1/DTD/svg11.dtd"><svg t="1508380605953" class="icon" style="" viewBox="0 0 1024 1024" version="1.1" xmlns="http://www.w3.org/2000/svg" p-id="3108" xmlns:xlink="http://www.w3.org/1999/xlink" width="200" height="200"><defs><style type="text/css"></style></defs><path d="M565.34960929 204.38281268a27.24609367 27.24609367 0 0 0-14.67773446 4.43847673l-177.89062483 123.48632752A21.70898429 21.70898429 0 0 1 360.34472622 336.21874965H204.20703108A43.85742179 43.85742179 0 0 0 160.43750008 380.16406225v263.6718755c0 24.25781275 19.59960903 43.94531258 43.769531 43.9453126h156.13769514c4.48242213 0 8.78906267 1.36230503 12.43652378 3.91113272l177.89062483 123.48632752a27.24609367 27.24609367 0 0 0 14.67773446 4.43847674c17.22656215 0 32.82714844-17.57812535 32.82714844-41.70410114V246.13085921c0-24.16992196-15.60058628-41.70410191-32.82714844-41.70410114zM510.63769497 680.48632813l-104.89746034-72.8173829a43.769531 43.769531 0 0 0-24.87304678-7.82226546H269.90527335a21.9726559 21.9726559 0 0 1-21.88476588-21.97265668v-131.83593697a21.9726559 21.9726559 0 0 1 21.88476588-21.97265669h110.9619145c8.87695347 0 17.57812535-2.72460929 24.87304678-7.82226545l104.89746034-72.8173829v337.01660165zM860.66210903 503.16699193c-3.77929653-76.81640643-66.5332033-131.44042994-110.17089809-160.35644489-20.65429704-13.71093725-48.07617153-5.36132778-58.22753923 17.92968699l-1.66992206 3.7792973a42.75878915 42.75878915 0 0 0 14.76562527 52.47070287c31.02539097 20.78613247 69.6972658 54.79980434 71.36718783 90.74707066 1.40624965 29.70703133-24.30175816 64.51171883-73.08105528 99.75585955a43.37402318 43.37402318 0 0 0-12.5244138 56.03027317l1.84570286 3.2958987c11.68945278 20.87402326 38.0566408 27.42187525 57.12890659 13.71093724 76.464844-54.97558594 113.64257838-114.52148403 110.56640591-177.40722699z" fill="" p-id="3109"></path></svg>