<?xml version="1.0" standalone="no"?><!DOCTYPE svg PUBLIC "-//W3C//DTD SVG 1.1//EN" "http://www.w3.org/Graphics/SVG/1.1/DTD/svg11.dtd"><svg t="1508380509359" class="icon" style="" viewBox="0 0 1024 1024" version="1.1" xmlns="http://www.w3.org/2000/svg" p-id="1882" xmlns:xlink="http://www.w3.org/1999/xlink" width="200" height="200"><defs><style type="text/css"></style></defs><path d="M783.18125 609.36875c-35.26875 115.003125-142.678125 198.871875-269.240625 198.871875-154.153125 0-280.8-126.140625-282.403125-279.703125l17.128125 11.1375c9.028125 9.1125 24.890625 9.1125 33.91875 0.084375 9.45-9.365625 9.45-24.553125 0.084375-33.91875l-47.25-40.584375c-4.471875-4.55625-12.065625-10.884375-23.9625-10.884375-11.8125 0-16.115625 0-23.709375 8.015625L132.3125 511.6625c-4.55625 4.471875-7.171875 10.546875-7.171875 16.959375-0.084375 6.4125 2.446875 12.403125 6.91875 16.959375 0 0 14.00625 15.440625 33.91875 0.3375l16.2-15.525c0.16875 4.303125 2.615625 21.43125 3.0375 25.65C199.728125 726.3125 340.71875 857.09375 513.940625 857.09375c156.684375 0 288.225-109.434375 321.890625-255.825-18.05625 3.54375-36.7875 6.328125-52.65 8.1zM240.059375 413.871875c35.353125-114.91875 142.678125-198.7875 269.15625-198.7875 154.153125 0 280.8 126.140625 282.403125 279.703125l-17.128125-11.1375c-9.028125-9.1125-24.890625-9.1125-33.91875-0.084375-9.45 9.365625-9.45 24.553125-0.084375 33.91875l47.25 40.584375c4.471875 4.55625 12.065625 10.884375 23.9625 10.884375 11.8125 0 16.115625 0 23.709375-8.015625l55.265625-49.190625c4.55625-4.471875 7.171875-10.546875 7.171875-16.959375 0.084375-6.4125-2.446875-12.403125-6.91875-16.959375 0 0-14.00625-15.440625-33.91875-0.3375L841.0625 493.015625c-0.16875-4.303125-2.615625-21.43125-3.0375-25.65C823.5125 297.096875 682.521875 166.315625 509.3 166.315625 352.53125 166.315625 220.90625 275.91875 187.325 422.39375c15.609375-4.55625 35.184375-8.184375 52.734375-8.521875z m0 0" fill="#333333" p-id="1883"></path><path d="M508.11875 408.55625l-41.85 103.6125H549.96875l-41.85-103.6125z m0-83.784375c9.61875-0.421875 18.9 5.23125 22.78125 14.68125l115.7625 286.621875c4.89375 12.065625-0.928125 25.734375-12.99375 30.628125-12.065625 4.89375-25.734375-0.928125-30.628125-12.99375L568.953125 559.25H447.284375l-34.0875 84.459375c-4.89375 12.065625-18.5625 17.8875-30.628125 12.99375-12.065625-4.89375-17.8875-18.5625-12.99375-30.628125l115.846875-286.621875c3.796875-9.45 13.078125-15.103125 22.696875-14.68125z m0 0" fill="#333333" p-id="1884"></path></svg>