<?xml version="1.0" standalone="no"?><!DOCTYPE svg PUBLIC "-//W3C//DTD SVG 1.1//EN" "http://www.w3.org/Graphics/SVG/1.1/DTD/svg11.dtd"><svg t="1508380550387" class="icon" style="" viewBox="0 0 1024 1024" version="1.1" xmlns="http://www.w3.org/2000/svg" p-id="2367" xmlns:xlink="http://www.w3.org/1999/xlink" width="200" height="200"><defs><style type="text/css"></style></defs><path d="M305.79899316 719.54953784c7.48454272 12.22377766 29.31650136 47.10524156 45.33356509 72.69094014 9.6864838 15.45787825 17.23983638 27.52188852 18.18578524 29.1084882 4.61031406 7.7566212 12.37879896 12.37563567 21.45231441 12.64929617h0.63827777c8.53331202 0 17.02312283-4.03372779 25.53112543-12.32501607 19.86413269-23.262746 19.36268517-34.80790795 19.12145167-40.35705251l-0.03242777-1.16819876c0.14473963-5.9675447 0.11072983-20.6313321 0.07513798-37.00273067-0.05220085-19.07874223-0.10361146-40.60382157 0.12022125-53.20170789l74.9593188-72.25830326c21.48236913 59.03874893 63.95594229 173.8489274 66.88079055 181.50589222 6.18742232 15.71571999 18.45628247 18.47210123 23.42725948 18.93321159 9.96963573 0.90323866 20.38614429-3.18269076 28.82770855-11.63137339 1.17373587-1.25599222 28.97956655-30.91338346 41.07442333-45.66812762 13.34135759-16.07638296 12.76556234-30.38029841 12.52037454-36.46252725-0.03242777-1.94647162-2.11414762-36.58986685-5.78721246-97.66446214-3.48482474-57.7487469-7.64905543-127.08615698-9.90319812-166.26393727L797.7247662 330.69342132c31.75967516-31.71854699 36.49653706-64.75398745 36.49179174-81.63553394 0-18.62949557-5.4581878-35.189135-14.57441268-44.27135084-9.05216033-9.11622488-26.30544245-14.78479888-45.04092175-14.78479889-16.82301828 0-49.73111991 4.69415167-81.20843416 36.17146672l-129.37193568 129.66457901c-33.47915078-2.12838435-88.93104555-5.74766707-140.50977093-9.11938895-65.6073983-4.28998827-122.27020203-7.98757227-124.81777831-8.04847352a59.70075486 59.70075486 0 0 0-3.25071038-0.08383839c-11.80300447 0-22.50424699 4.10886577-32.68664196 12.57257615-14.67565109 12.1660397-44.3449068 40.09209163-45.70450971 41.37655733-8.33795279 8.39173567-12.53461203 18.90315608-11.53804359 28.8727918 0.65488756 6.23962317 4.00920939 17.56174421 18.9798761 23.40432158 7.25912876 2.8512923 121.92693987 45.84766808 182.65906399 68.27994114l-72.1902844 74.5891652c-3.0735422 0.03717387-6.59000448 0.2396507-10.69412415 0.03717387-13.30734778 0-30.71881525-0.24518704-46.06359064-0.46901973-15.87074206-0.22541395-29.42011282-0.44924666-34.29855106-0.27366128l0.17321235 4.41495484-1.3002837-4.41495484-1.03927788-0.01581799c-7.25201039 0-18.22849545 2.22171416-39.097897 19.72809268l-1.85867815 1.74083072c-8.41309078 8.48506549-10.39199018 16.99069506-10.57232165 22.64898662-0.28473395 8.52935694 3.29500186 16.21479523 10.02341784 21.62552752 4.67754267 3.80752281 60.50670939 39.49968736 105.56503272 66.84598971z" fill="" p-id="2368"></path></svg>