<?xml version="1.0" standalone="no"?><!DOCTYPE svg PUBLIC "-//W3C//DTD SVG 1.1//EN" "http://www.w3.org/Graphics/SVG/1.1/DTD/svg11.dtd"><svg t="1508380617573" class="icon" style="" viewBox="0 0 1024 1024" version="1.1" xmlns="http://www.w3.org/2000/svg" p-id="3355" xmlns:xlink="http://www.w3.org/1999/xlink" width="200" height="200"><defs><style type="text/css"></style></defs><path d="M635.59619164 728.2933352L388.40380836 728.2933352 388.40380836 295.7066648 635.59619164 295.7066648M651.04571533 233.90856933L372.95428467 233.90856933C347.30807518 233.90856933 326.60571289 254.61093163 326.60571289 280.25714112L326.60571289 743.74285888C326.60571289 769.38906837 347.30807518 790.09143067 372.95428467 790.09143067L651.04571533 790.09143067C676.69192482 790.09143067 697.39428711 769.38906837 697.39428711 743.74285888L697.39428711 280.25714112C697.39428711 254.61093163 676.69192482 233.90856933 651.04571533 233.90856933M728.2933352 666.49523902L790.09143067 666.49523902 790.09143067 357.50476098 728.2933352 357.50476098M820.99047875 419.30285644L820.99047875 604.69714356 882.78857422 604.69714356 882.78857422 419.30285644M233.90856933 666.49523902L295.7066648 666.49523902 295.7066648 357.50476098 233.90856933 357.50476098M141.21142578 604.69714356L203.00952125 604.69714356 203.00952125 419.30285644 141.21142578 419.30285644 141.21142578 604.69714356Z" p-id="3356"></path></svg>