<?xml version="1.0" standalone="no"?><!DOCTYPE svg PUBLIC "-//W3C//DTD SVG 1.1//EN" "http://www.w3.org/Graphics/SVG/1.1/DTD/svg11.dtd"><svg t="1508588184302" class="icon" style="" viewBox="0 0 1024 1024" version="1.1" xmlns="http://www.w3.org/2000/svg" p-id="2804" xmlns:xlink="http://www.w3.org/1999/xlink" width="48" height="48"><defs><style type="text/css"></style></defs><path d="M512 85.333333a199.111111 199.111111 0 0 0-199.111111 199.111111v170.666667a199.111111 199.111111 0 1 0 398.222222 0v-170.666667a199.111111 199.111111 0 0 0-199.111111-199.111111z m142.222222 369.777778c0 78.421333-63.800889 142.222222-142.222222 142.222222s-142.222222-63.800889-142.222222-142.222222v-170.666667c0-78.421333 63.800889-142.222222 142.222222-142.222222s142.222222 63.800889 142.222222 142.222222v170.666667z" p-id="2805" fill="#ffffff"></path><path d="M512 85.333333a199.111111 199.111111 0 0 0-199.111111 199.111111v170.666667a199.111111 199.111111 0 1 0 398.222222 0v-170.666667a199.111111 199.111111 0 0 0-199.111111-199.111111z m142.222222 369.777778c0 78.421333-63.800889 142.222222-142.222222 142.222222s-142.222222-63.800889-142.222222-142.222222v-170.666667c0-78.421333 63.800889-142.222222 142.222222-142.222222s142.222222 63.800889 142.222222 142.222222v170.666667z" p-id="2806" fill="#ffffff"></path><path d="M768 455.111111c0 141.169778-114.830222 256-256 256-141.141333 0-256-114.830222-256-256H199.111111c0 172.8 140.088889 312.888889 312.888889 312.888889s312.888889-140.088889 312.888889-312.888889h-56.888889z" p-id="2807" fill="#ffffff"></path><path d="M512 711.111111a28.444444 28.444444 0 0 0-28.444444 28.444445v142.222222a28.444444 28.444444 0 1 0 56.888888 0v-142.222222a28.444444 28.444444 0 0 0-28.444444-28.444445z" p-id="2808" fill="#ffffff"></path></svg>